<svg fill="none" height="34" viewBox="0 0 33 34" width="33" xmlns="http://www.w3.org/2000/svg">
    <path
        d="M22.3858 9.52881C19.857 9.52881 18.7883 10.7355 17.0272 10.7355C15.2216 10.7355 13.8443 9.53759 11.6529 9.53759C9.50799 9.53759 7.22069 10.8471 5.76815 13.078C3.72858 16.2239 4.07478 22.1488 7.37811 27.1963C8.55971 29.0032 10.1377 31.0296 12.2074 31.0516H12.245C14.0437 31.0516 14.5781 29.8737 17.0535 29.8599H17.0912C19.5296 29.8599 20.0188 31.0447 21.81 31.0447H21.8477C23.9173 31.0227 25.58 28.7774 26.7616 26.9774C27.612 25.683 27.9281 25.0332 28.5804 23.5687C23.8019 21.755 23.0343 14.9808 27.76 12.3837C26.3175 10.5774 24.2905 9.53132 22.3795 9.53132L22.3858 9.52881Z"
        fill="white" />
    <path
        d="M21.8303 2.95166C20.3251 3.05389 18.569 4.01221 17.5405 5.26343C16.6072 6.39736 15.8396 8.07944 16.1406 9.71072H16.261C17.8641 9.71072 19.5048 8.7455 20.4631 7.50871C21.3863 6.33151 22.0862 4.66322 21.8303 2.95166Z"
        fill="white" />
</svg>
