<svg fill="none" height="40" viewBox="0 0 40 40" width="40" xmlns="http://www.w3.org/2000/svg">
    <path
        d="M11.7057 3.84953C12.9574 4.27352 14.148 4.85962 15.2474 5.59287C16.8 5.19605 18.3965 4.9967 19.9991 4.99953C21.6541 4.99953 23.2507 5.2062 24.7474 5.5912C25.8464 4.85866 27.0365 4.27313 28.2874 3.84953C29.4491 3.45453 31.1041 2.81453 32.0874 3.90287C32.7541 4.64287 32.9207 5.88287 33.0391 6.82953C33.1724 7.8862 33.2041 9.26287 32.8541 10.6295C34.1924 12.3579 34.9991 14.4195 34.9991 16.6662C34.9991 20.0695 33.1557 23.0245 30.4274 25.0712C29.1144 26.0438 27.6581 26.8062 26.1107 27.3312C26.4674 28.1479 26.6657 29.0512 26.6657 29.9995V34.9995C26.6657 35.4416 26.4902 35.8655 26.1776 36.178C25.865 36.4906 25.4411 36.6662 24.9991 36.6662H14.9991C14.5571 36.6662 14.1331 36.4906 13.8206 36.178C13.508 35.8655 13.3324 35.4416 13.3324 34.9995V33.3479C11.7407 33.5429 10.4057 33.3695 9.27075 32.8879C8.08408 32.3845 7.25741 31.6045 6.63575 30.8579C6.04575 30.1512 5.40241 28.5579 4.47241 28.2479C4.26471 28.1787 4.07266 28.0693 3.90723 27.9259C3.7418 27.7825 3.60623 27.608 3.50826 27.4122C3.31041 27.0168 3.27773 26.559 3.41741 26.1395C3.55709 25.72 3.85769 25.3732 4.25308 25.1754C4.64847 24.9775 5.10626 24.9449 5.52575 25.0845C6.63575 25.4545 7.35908 26.2545 7.85408 26.8979C8.65408 27.9312 9.30408 29.2812 10.5707 29.8195C11.0924 30.0412 11.8574 30.1862 13.0541 30.0229L13.3324 29.9662C13.3356 29.0592 13.5245 28.1624 13.8874 27.3312C12.3401 26.8062 10.8838 26.0438 9.57075 25.0712C6.84241 23.0245 4.99908 20.0712 4.99908 16.6662C4.99908 14.4229 5.80408 12.3629 7.13908 10.6362C6.78908 9.26953 6.81908 7.88953 6.95241 6.8312L6.96075 6.76787C7.08241 5.79787 7.22408 4.6562 7.90408 3.90287C8.88741 2.81453 10.5441 3.4562 11.7041 3.8512"
        fill="#11CEF7" />
</svg>
